<svg xmlns="http://www.w3.org/2000/svg" viewBox="0 0 320 160"><path id="body" d="M0 -44.0 C 21.3 -44.0 34.3 -13.2 34.3 13.2 C 34.3 35.2 19.9 44.0 0 44.0 C -19.9 44.0 -34.3 35.2 -34.3 13.2 C -34.3 -13.2 -21.3 -44.0 0 -44.0 Z" fill="#F4A582" style="mix-blend-mode:multiply" transform="translate(112.0 112.0) rotate(-16.0)"/><circle id="head" cx="93.1" cy="46.0" r="15.0" fill="#F4A582"/><path id="body" d="M0 -44.0 C 21.3 -44.0 34.3 -13.2 34.3 13.2 C 34.3 35.2 19.9 44.0 0 44.0 C -19.9 44.0 -34.3 35.2 -34.3 13.2 C -34.3 -13.2 -21.3 -44.0 0 -44.0 Z" fill="#E9C4A8" style="mix-blend-mode:multiply" transform="translate(144.0 112.0) rotate(16.0)"/><circle id="head" cx="162.9" cy="46.0" r="15.0" fill="#E9C4A8"/><path id="body" d="M0 -24.0 C 11.6 -24.0 18.7 -7.2 18.7 7.2 C 18.7 19.2 10.9 24.0 0 24.0 C -10.9 24.0 -18.7 19.2 -18.7 7.2 C -18.7 -7.2 -11.6 -24.0 0 -24.0 Z" fill="#F4A582" style="mix-blend-mode:multiply" transform="translate(238.0 132.0) rotate(-8.0)"/><circle id="head" cx="232.8" cy="94.9" r="8.2" fill="#E06B3E"/></svg>